<svg width="60" height="36" viewBox="0 0 60 36" fill="none" xmlns="http://www.w3.org/2000/svg">
<path d="M52.5 21.7259C51.9823 21.7259 51.5625 22.1456 51.5625 22.6634V29.2324H50.0709C49.7033 25.9808 46.7694 23.6429 43.5179 24.0104C40.7727 24.3207 38.6064 26.4872 38.2959 29.2324H18.75V2.04492H51.5625V4.99336C51.5625 5.51109 51.9823 5.93086 52.5 5.93086C53.0177 5.93086 53.4375 5.51109 53.4375 4.99336V1.10742C53.4375 0.589687 53.0177 0.169922 52.5 0.169922H17.8125C17.2948 0.169922 16.875 0.589687 16.875 1.10742V2.04492H6.13875C3.78527 2.04797 1.87805 3.95508 1.875 6.30867V7.66992C1.875 8.18766 2.29477 8.60742 2.8125 8.60742H3.90281L3.1875 17.1996C1.31543 17.6869 0.0065625 19.3741 0 21.3087V29.2324C0 29.7502 0.419766 30.1699 0.9375 30.1699H2.83594C3.09293 33.5224 6.0191 36.0319 9.3716 35.7749C12.3669 35.5453 14.7469 33.1652 14.9766 30.1699C14.985 30.1699 14.9916 30.1746 15 30.1746H16.875C16.875 30.6923 17.2948 31.1121 17.8125 31.1121H38.3812C39.0491 34.3166 42.1883 36.3729 45.3928 35.705C47.7011 35.224 49.5046 33.4204 49.9856 31.1121H52.5C53.0177 31.1121 53.4375 30.6923 53.4375 30.1746V22.6634C53.4375 22.1455 53.0177 21.7259 52.5 21.7259ZM8.90625 33.9199C6.57633 33.9199 4.6875 32.0311 4.6875 29.7012C4.6875 27.3713 6.57633 25.4824 8.90625 25.4824C11.2362 25.4824 13.125 27.3713 13.125 29.7012C13.1224 32.03 11.2351 33.9173 8.90625 33.9199ZM16.875 28.2949H15C14.945 28.3007 14.8907 28.3116 14.8378 28.3277C14.0838 25.052 10.8171 23.0078 7.54148 23.7618C5.28281 24.2816 3.51551 26.0392 2.98312 28.2949H1.875V21.3087C1.87652 19.9901 2.94516 18.9214 4.26375 18.9199H16.875V28.2949ZM16.875 17.0449H5.08125L5.78438 8.60742H16.875V17.0449ZM16.875 6.73242H3.75V6.30867C3.75152 4.99008 4.82016 3.92145 6.13875 3.91992H16.875V6.73242ZM48.2291 30.1324C48.1086 32.2772 46.3324 33.9536 44.1844 33.9499H44.1834C42.2164 33.9456 40.5369 32.5289 40.2009 30.5909C40.3652 30.3037 40.3465 29.947 40.1531 29.6787C40.2784 27.4486 42.1879 25.7422 44.418 25.8675C46.6481 25.9928 48.3545 27.9022 48.2291 30.1324Z" fill="#EB9B51"/>
<path d="M51.5625 7.66992H38.4375C37.9198 7.66992 37.5 8.08969 37.5 8.60742C37.5 9.12516 37.9198 9.54492 38.4375 9.54492H51.5625C52.0802 9.54492 52.5 9.12516 52.5 8.60742C52.5 8.08969 52.0802 7.66992 51.5625 7.66992Z" fill="#EB9B51"/>
<path d="M53.4375 17.9824H32.8125C32.2948 17.9824 31.875 18.4022 31.875 18.9199C31.875 19.4376 32.2948 19.8574 32.8125 19.8574H53.4375C53.9552 19.8574 54.375 19.4376 54.375 18.9199C54.375 18.4022 53.9552 17.9824 53.4375 17.9824Z" fill="#EB9B51"/>
<path d="M51.5625 12.3574H41.25C40.7323 12.3574 40.3125 12.7772 40.3125 13.2949C40.3125 13.8127 40.7323 14.2324 41.25 14.2324H51.5625C52.0802 14.2324 52.5 13.8127 52.5 13.2949C52.5 12.7772 52.0802 12.3574 51.5625 12.3574Z" fill="#EB9B51"/>
<path d="M55.3125 9.54492H57.1875C57.7052 9.54492 58.125 9.12516 58.125 8.60742C58.125 8.08969 57.7052 7.66992 57.1875 7.66992H55.3125C54.7948 7.66992 54.375 8.08969 54.375 8.60742C54.375 9.12516 54.7948 9.54492 55.3125 9.54492Z" fill="#EB9B51"/>
<path d="M58.125 17.9824H56.25C55.7323 17.9824 55.3125 18.4022 55.3125 18.9199C55.3125 19.4376 55.7323 19.8574 56.25 19.8574H58.125C58.6427 19.8574 59.0625 19.4376 59.0625 18.9199C59.0625 18.4022 58.6427 17.9824 58.125 17.9824Z" fill="#EB9B51"/>
<path d="M59.0625 12.3574H55.3125C54.7948 12.3574 54.375 12.7772 54.375 13.2949C54.375 13.8127 54.7948 14.2324 55.3125 14.2324H59.0625C59.5802 14.2324 60 13.8127 60 13.2949C60 12.7772 59.5802 12.3574 59.0625 12.3574Z" fill="#EB9B51"/>
</svg>
