<svg width="45" height="47" viewBox="0 0 45 47" fill="none" xmlns="http://www.w3.org/2000/svg">
<path d="M43.6675 10.3704L22.3277 0.0684346C22.1385 -0.0228115 21.9182 -0.0228115 21.7291 0.0684346L0.389127 10.3704C0.151189 10.4853 0 10.7262 0 10.9904V36.0096C0 36.2738 0.151189 36.5147 0.389127 36.6296L21.729 46.9316C21.8235 46.9772 21.926 47 22.0283 47C22.1307 47 22.233 46.9772 22.3277 46.9316L43.6675 36.6296C43.9054 36.5147 44.0566 36.2738 44.0566 36.0096V10.9905C44.0566 10.7261 43.9053 10.4854 43.6675 10.3704ZM22.0283 1.45301L41.7846 10.9904L36.0576 13.7552C36.0214 13.7275 35.9831 13.702 35.941 13.6817L16.319 4.20921L22.0283 1.45301ZM14.7642 4.98765L34.4917 14.5112L30.4512 16.4618L10.7319 6.94209L14.7642 4.98765ZM34.9532 15.8173V23.0276L31.1792 24.8496V17.6393L34.9532 15.8173ZM42.6797 35.5776L22.7168 45.2146V21.7245L27.4786 19.4257C27.821 19.2604 27.9645 18.8489 27.7992 18.5064C27.6339 18.1641 27.2224 18.0203 26.8799 18.1857L22.0283 20.5279L20.1193 19.6063C19.7768 19.4408 19.3653 19.5845 19.2 19.9269C19.0346 20.2693 19.1782 20.681 19.5206 20.8463L21.3398 21.7245V45.2146L1.37695 35.5774V12.0873L16.5785 19.426C16.675 19.4726 16.777 19.4947 16.8773 19.4947C17.1332 19.4947 17.3791 19.3513 17.4978 19.1054C17.6631 18.763 17.5195 18.3513 17.1771 18.186L2.27206 10.9904L9.11139 7.68868L29.7927 17.6728C29.7957 17.677 29.7991 17.6808 29.8022 17.6849V25.9465C29.8022 26.1835 29.924 26.4037 30.1247 26.5297C30.2361 26.5997 30.3633 26.635 30.4908 26.635C30.5929 26.635 30.6952 26.6123 30.79 26.5665L35.941 24.0798C36.179 23.965 36.3302 23.7241 36.3302 23.4598V15.1527L42.6797 12.0874V35.5776Z" fill="#EB9B51"/>
<path d="M7.0586 32.9067L3.92695 31.3949C3.58437 31.2294 3.17293 31.3731 3.00761 31.7155C2.84228 32.0579 2.98585 32.4696 3.32825 32.6349L6.4599 34.1467C6.55638 34.1933 6.65837 34.2153 6.7587 34.2153C7.01463 34.2153 7.26047 34.072 7.37916 33.826C7.54458 33.4835 7.40101 33.0721 7.0586 32.9067Z" fill="#EB9B51"/>
<path d="M9.94077 31.0308L3.93129 28.1297C3.58879 27.9643 3.17727 28.1079 3.01194 28.4504C2.84671 28.7928 2.99028 29.2044 3.33268 29.3698L9.34216 32.2709C9.43864 32.3175 9.54063 32.3396 9.64096 32.3396C9.89689 32.3396 10.1427 32.1962 10.2614 31.9503C10.4267 31.6077 10.2832 31.1961 9.94077 31.0308Z" fill="#EB9B51"/>
</svg>
