<svg width="51" height="41" viewBox="0 0 51 41" fill="none" xmlns="http://www.w3.org/2000/svg">
<path d="M48.1646 39.5209H47.3233V17.5814C49.223 16.359 50.485 14.2275 50.485 11.8054C50.485 11.6767 50.4513 11.5502 50.3875 11.4385L44.5194 1.16914C44.1072 0.448054 43.3352 0 42.5047 0H7.98027C7.14973 0 6.37777 0.447955 5.96561 1.16914L0.0974202 11.4385C0.0336238 11.5502 0 11.6768 0 11.8054C0 14.2275 1.26193 16.359 3.16162 17.5814V39.5209H2.32034C1.91192 39.5209 1.58081 39.8521 1.58081 40.2605C1.58081 40.6689 1.91192 41 2.32034 41H48.1646C48.5731 41 48.9041 40.6689 48.9041 40.2605C48.9041 39.8521 48.573 39.5209 48.1646 39.5209ZM1.53003 12.5449H3.90085C4.30927 12.5449 4.64038 12.2138 4.64038 11.8054C4.64038 11.397 4.30927 11.0659 3.90085 11.0659H2.01388L7.24982 1.90295C7.3993 1.64145 7.67914 1.47905 7.98027 1.47905H42.5047C42.8058 1.47905 43.0858 1.64145 43.2351 1.90295L48.471 11.0659H46.5836C46.1751 11.0659 45.8441 11.397 45.8441 11.8054C45.8441 12.2138 46.1751 12.5449 46.5836 12.5449H48.9548C48.5933 15.1662 46.3387 17.1916 43.6196 17.1916C40.9006 17.1916 38.6471 15.166 38.2854 12.5449H43.4223C43.8308 12.5449 44.1618 12.2138 44.1618 11.8054C44.1618 11.397 43.8308 11.0659 43.4223 11.0659H7.06306C6.65465 11.0659 6.32354 11.397 6.32354 11.8054C6.32354 12.2138 6.65465 12.5449 7.06306 12.5449H12.1994C11.8377 15.166 9.58416 17.1916 6.86526 17.1916C4.14618 17.1916 1.89161 15.1662 1.53003 12.5449ZM36.7024 12.5449C36.3407 15.166 34.0871 17.1916 31.3682 17.1916C28.6492 17.1916 26.3957 15.166 26.0341 12.5449H36.7024ZM24.4509 12.5449C24.0892 15.166 21.8356 17.1916 19.1167 17.1916C16.3979 17.1916 14.1443 15.166 13.7826 12.5449H24.4509ZM41.8921 39.521H33.8862V37.048H41.8921V39.521ZM41.8921 35.5689H33.8862V22.03H41.8921V35.5689ZM45.8443 39.521H43.3712V21.2905C43.3712 20.882 43.0402 20.5509 42.6317 20.5509H33.1467C32.7382 20.5509 32.4072 20.882 32.4072 21.2905V39.5209H4.64067V18.2986C5.33888 18.5385 6.08669 18.6707 6.86526 18.6707C9.53692 18.6707 11.857 17.1368 12.991 14.9033C14.125 17.1367 16.4451 18.6707 19.1167 18.6707C21.7884 18.6707 24.1084 17.1368 25.2425 14.9033C26.3765 17.1367 28.6966 18.6707 31.3682 18.6707C34.0399 18.6707 36.3599 17.1368 37.494 14.9033C38.628 17.1367 40.948 18.6707 43.6197 18.6707C44.3983 18.6707 45.1461 18.5385 45.8443 18.2987V39.521Z" fill="#EB9B51"/>
<path d="M29.1946 20.5508H7.8533C7.44488 20.5508 7.11377 20.8819 7.11377 21.2903V36.3083C7.11377 36.7167 7.44488 37.0478 7.8533 37.0478H29.1946C29.6031 37.0478 29.9342 36.7167 29.9342 36.3083V21.2903C29.9342 20.8818 29.6031 20.5508 29.1946 20.5508ZM28.4551 35.5688H8.59282V22.0298H28.4551V35.5688Z" fill="#EB9B51"/>
</svg>
