<svg width="36" height="53" viewBox="0 0 36 53" fill="none" xmlns="http://www.w3.org/2000/svg">
<path d="M29.4883 0H6.51191C4.73114 0 3.28235 1.44869 3.28235 3.22957V16.3587C3.28245 16.7827 3.6261 17.1265 4.0502 17.1265C4.47431 17.1265 4.81795 16.7828 4.81795 16.3587V3.22957C4.81795 2.29547 5.57792 1.5355 6.51202 1.5355H29.4883C30.4224 1.5355 31.1824 2.29547 31.1824 3.22957V9.79434C31.1824 10.2184 31.526 10.5621 31.9501 10.5621C32.3742 10.5621 32.7179 10.2184 32.7179 9.79434V3.22957C32.7178 1.44869 31.2691 0 29.4883 0Z" fill="#EB9B51"/>
<path d="M28.6677 44.313H7.33245C6.90834 44.313 6.5647 44.6566 6.5647 45.0807C6.5647 45.5048 6.90834 45.8485 7.33245 45.8485H28.6677C29.0918 45.8485 29.4355 45.5048 29.4355 45.0807C29.4355 44.6566 29.0918 44.313 28.6677 44.313Z" fill="#EB9B51"/>
<path d="M28.6677 3.28174H7.33245C6.90834 3.28174 6.5647 3.62538 6.5647 4.04949C6.5647 4.47359 6.90834 4.81724 7.33245 4.81724H28.6677C29.0918 4.81724 29.4355 4.47359 29.4355 4.04949C29.4355 3.62538 29.0918 3.28174 28.6677 3.28174Z" fill="#EB9B51"/>
<path d="M18.8206 47.5942H17.1793C16.7552 47.5942 16.4116 47.9379 16.4116 48.362C16.4116 48.7861 16.7552 49.1297 17.1793 49.1297H18.8206C19.2447 49.1297 19.5883 48.7861 19.5883 48.362C19.5883 47.9379 19.2447 47.5942 18.8206 47.5942Z" fill="#EB9B51"/>
<path d="M6.51191 23.7964H5.69124C4.36293 23.7964 3.28235 24.8771 3.28235 26.2053C3.28235 27.5335 4.36293 28.6142 5.69124 28.6142H6.51191C7.84022 28.6142 8.92081 27.5335 8.92081 26.2053C8.92081 24.8771 7.84012 23.7964 6.51191 23.7964ZM6.51191 27.0787H5.69124C5.20961 27.0787 4.81785 26.6869 4.81785 26.2053C4.81785 25.7236 5.20961 25.3319 5.69124 25.3319H6.51191C6.99355 25.3319 7.38531 25.7236 7.38531 26.2053C7.38531 26.6869 6.99355 27.0787 6.51191 27.0787Z" fill="#EB9B51"/>
<path d="M18.8207 23.7964C18.1871 23.7964 17.6101 24.0427 17.1796 24.4442C16.749 24.0427 16.1721 23.7964 15.5383 23.7964C14.21 23.7964 13.1295 24.8771 13.1295 26.2053C13.1295 27.5335 14.2101 28.6142 15.5383 28.6142C16.1721 28.6142 16.749 28.3679 17.1796 27.9664C17.6101 28.3679 18.1871 28.6142 18.8208 28.6142C20.1491 28.6142 21.2297 27.5335 21.2297 26.2053C21.2296 24.8771 20.1489 23.7964 18.8207 23.7964ZM16.4116 26.2054V26.2067C16.4109 26.6877 16.0194 27.0789 15.5382 27.0789C15.0566 27.0789 14.6649 26.6871 14.6649 26.2055C14.6649 25.7238 15.0566 25.3319 15.5382 25.3319C16.0195 25.3319 16.4109 25.7229 16.4116 26.204V26.2054ZM18.8207 27.0787H18.8206C18.3394 27.0787 17.9481 26.6876 17.9473 26.2065V26.2052V26.2038C17.9479 25.7229 18.3395 25.3319 18.8207 25.3319C19.3024 25.3319 19.6941 25.7236 19.6941 26.2053C19.6941 26.6869 19.3025 27.0787 18.8207 27.0787Z" fill="#EB9B51"/>
<path d="M5.69124 30.3623H4.0501C3.62599 30.3623 3.28235 30.7059 3.28235 31.1301C3.28235 31.5542 3.62599 31.8978 4.0501 31.8978H5.69124C6.11535 31.8978 6.45899 31.5542 6.45899 31.1301C6.45899 30.7059 6.11535 30.3623 5.69124 30.3623Z" fill="#EB9B51"/>
<path d="M15.5382 30.3623H13.8971C13.473 30.3623 13.1293 30.7059 13.1293 31.1301C13.1293 31.5542 13.473 31.8978 13.8971 31.8978H15.5382C15.9623 31.8978 16.306 31.5542 16.306 31.1301C16.306 30.7059 15.9623 30.3623 15.5382 30.3623Z" fill="#EB9B51"/>
<path d="M10.6147 30.3623H8.97356C8.54956 30.3623 8.20581 30.7059 8.20581 31.1301C8.20581 31.5542 8.54946 31.8978 8.97356 31.8978H10.6147C11.0388 31.8978 11.3825 31.5542 11.3825 31.1301C11.3825 30.7059 11.0388 30.3623 10.6147 30.3623Z" fill="#EB9B51"/>
<path d="M20.4619 30.3623H18.8208C18.3967 30.3623 18.053 30.7059 18.053 31.1301C18.053 31.5542 18.3967 31.8978 18.8208 31.8978H20.4619C20.886 31.8978 21.2297 31.5542 21.2297 31.1301C21.2297 30.7059 20.8859 30.3623 20.4619 30.3623Z" fill="#EB9B51"/>
<path d="M33.5912 12.3091H13.8971C12.5688 12.3091 11.4882 13.3898 11.4882 14.718V16.3592C11.4882 16.5628 11.5691 16.758 11.713 16.9022C11.857 17.0461 12.0522 17.127 12.2559 17.127L34.4646 17.1269V18.8737H27.0265C26.6024 18.8737 26.2588 19.2173 26.2588 19.6414C26.2588 20.0655 26.6024 20.4092 27.0265 20.4092H34.4646V27.8472C34.4646 28.3288 34.0728 28.7206 33.5912 28.7206H27.0265C26.6024 28.7206 26.2588 29.0642 26.2588 29.4884C26.2588 29.9125 26.6024 30.2561 27.0265 30.2561H31.1823V49.1824C31.1823 50.1165 30.4223 50.8764 29.4883 50.8764H6.51185C5.57775 50.8764 4.81778 50.1165 4.81778 49.1824V36.8209H22.1029C23.4312 36.8209 24.5118 35.7402 24.5118 34.412V21.2826C24.5118 19.9543 23.4311 18.8738 22.1029 18.8738H2.40889C1.08058 18.8738 0 19.9544 0 21.2826V34.412C0 35.7403 1.08068 36.8209 2.40889 36.8209H3.28228V49.1825C3.28228 50.9632 4.73098 52.412 6.51185 52.412H29.4881C31.2689 52.412 32.7177 50.9633 32.7177 49.1825V30.2562H33.5911C34.9194 30.2562 36 29.1755 36 27.8473V14.718C36.0001 13.3898 34.9195 12.3091 33.5912 12.3091ZM2.40889 35.2854C1.92726 35.2854 1.5355 34.8936 1.5355 34.412V21.2826C1.5355 20.801 1.92726 20.4093 2.40889 20.4093H22.103C22.5846 20.4093 22.9764 20.801 22.9764 21.2826V34.412C22.9764 34.8936 22.5846 35.2854 22.103 35.2854H2.40889ZM34.4647 15.5915L13.0238 15.5916V14.7181C13.0238 14.2364 13.4156 13.8447 13.8972 13.8447H33.5913C34.0729 13.8447 34.4647 14.2364 34.4647 14.7181V15.5915Z" fill="#EB9B51"/>
</svg>
